<svg width="21" height="22" viewBox="0 0 21 22" fill="none" xmlns="http://www.w3.org/2000/svg">
<g clip-path="url(#clip0_6231_2730)">
<path d="M7.74214 9.05531C7.43489 7.96054 6.49854 7.20984 5.41587 7.20984C4.33321 7.20984 3.39685 7.96054 3.08961 9.05531C2.31419 9.57142 1.67045 10.369 1.2169 11.3543C0.74872 12.3865 0.5 13.5908 0.5 14.8576C0.5 16.5779 0.953548 18.1888 1.78749 19.3618C2.69459 20.6599 3.98208 21.3637 5.41587 21.3637C6.84967 21.3637 8.13716 20.6599 9.04426 19.3618C9.14667 19.221 9.11741 19.0334 8.98573 18.9239C8.85406 18.8144 8.67849 18.8457 8.57608 18.9864C7.78603 20.1125 6.65947 20.7381 5.41587 20.7381C4.17227 20.7381 3.04572 20.1125 2.25567 18.9864C1.49488 17.9073 1.08522 16.4372 1.08522 14.8576C1.08522 13.6846 1.30468 12.5586 1.7436 11.6358C2.16789 10.7131 2.76774 9.99368 3.49927 9.54014C3.57242 9.49322 3.61631 9.43066 3.63094 9.33682C3.83577 8.461 4.5673 7.83542 5.41587 7.83542C6.26445 7.83542 7.01061 8.44537 7.2008 9.33682C7.21543 9.41502 7.27396 9.49322 7.33248 9.54014C8.06401 9.99368 8.66386 10.7287 9.08815 11.6358C9.51243 12.5742 9.74652 13.6846 9.74652 14.8576C9.74652 15.9054 9.57096 16.9064 9.21982 17.7822C9.1613 17.9386 9.21982 18.1263 9.38076 18.1888C9.52707 18.2514 9.70263 18.1888 9.76116 18.0168C10.1416 17.0628 10.3317 15.9836 10.3317 14.8576C10.3317 13.5908 10.083 12.3709 9.61485 11.3543C9.17593 10.369 8.51756 9.57142 7.74214 9.05531Z" fill="#961914"/>
<path d="M3.22097 12.9027C3.06003 12.8558 2.89909 12.9497 2.8552 13.1217C2.7089 13.6534 2.63574 14.2478 2.63574 14.8577C2.63574 17.3131 3.80619 19.0804 5.41555 19.0804C7.02491 19.0804 8.19536 17.2975 8.19536 14.8577C8.19536 12.4179 7.02491 10.635 5.41555 10.635C4.68402 10.635 4.01102 11.0104 3.51358 11.6985C3.41116 11.8393 3.44042 12.0269 3.55747 12.1364C3.68914 12.2459 3.86471 12.2146 3.96712 12.0739C4.36215 11.5421 4.85959 11.2606 5.41555 11.2606C6.68841 11.2606 7.61014 12.7776 7.61014 14.8577C7.61014 16.9378 6.68841 18.4548 5.41555 18.4548C4.14269 18.4548 3.22097 16.9378 3.22097 14.8577C3.22097 14.2947 3.29412 13.7629 3.42579 13.2937C3.46968 13.1217 3.36727 12.9497 3.22097 12.9027Z" fill="#961914"/>
<path d="M19.2122 2.00187C18.3051 0.703781 17.0176 0 15.5838 0C14.15 0 12.8479 0.703781 11.9555 2.00187C11.3702 2.83076 10.9606 3.89426 10.785 5.06723C10.7411 5.22362 10.8582 5.39566 11.0191 5.42694C11.18 5.44258 11.3263 5.3331 11.3556 5.16106C11.5165 4.09757 11.8823 3.12792 12.4236 2.37722C13.2137 1.25117 14.3256 0.625583 15.5838 0.625583C16.8274 0.625583 17.954 1.25117 18.7441 2.37722C19.5048 3.45635 19.9145 4.92647 19.9145 6.50607C19.9145 7.67904 19.695 8.80509 19.2561 9.72782C18.8318 10.6506 18.232 11.37 17.5005 11.8235C17.4273 11.8704 17.3834 11.933 17.3688 12.0268C17.1639 12.9027 16.4324 13.5282 15.5838 13.5282C14.7353 13.5282 13.9891 12.9183 13.7989 12.0268C13.7697 11.9486 13.7258 11.8861 13.6526 11.8392C12.9211 11.3856 12.3212 10.6506 11.8969 9.74346C11.4727 8.80509 11.2532 7.67904 11.2532 6.50607C11.2532 6.33403 11.1215 6.19328 10.9606 6.19328C10.7996 6.19328 10.668 6.33403 10.668 6.50607C10.668 7.77287 10.9167 8.99276 11.3849 10.0093C11.8384 10.9946 12.4822 11.7922 13.2576 12.3084C13.5648 13.4031 14.5012 14.1538 15.5838 14.1538C16.6665 14.1538 17.6029 13.4031 17.9101 12.3084C18.6855 11.7922 19.3439 10.9946 19.7828 10.0093C20.251 8.99276 20.4997 7.77287 20.4997 6.50607C20.4997 4.78571 20.0315 3.19047 19.2122 2.00187Z" fill="#961914"/>
<path d="M17.8668 8.17945C18.0278 8.21073 18.1887 8.11689 18.218 7.94486C18.3204 7.49131 18.3643 7.00648 18.3643 6.50601C18.3643 4.0506 17.1938 2.28333 15.5845 2.28333C13.9751 2.28333 12.79 4.06624 12.79 6.50601C12.79 8.94579 13.9605 10.7287 15.5698 10.7287C16.4331 10.7287 17.1938 10.2126 17.7205 9.28986C17.8083 9.13346 17.7498 8.94579 17.6181 8.86759C17.4718 8.77375 17.2963 8.83631 17.2231 8.97707C16.8134 9.71213 16.2282 10.1188 15.5845 10.1188C14.3116 10.1188 13.3899 8.60172 13.3899 6.52165C13.3899 4.44159 14.3116 2.92455 15.5845 2.92455C16.8573 2.92455 17.7791 4.44159 17.7791 6.52165C17.7791 6.9752 17.7352 7.41311 17.6474 7.81974C17.6035 7.97614 17.7059 8.14817 17.8668 8.17945Z" fill="#961914"/>
<path d="M4.78639 16.2651C4.78639 16.093 4.65472 15.9523 4.49378 15.9523C4.33285 15.9523 4.20117 16.093 4.20117 16.2651C4.20117 16.4371 4.33285 16.5779 4.49378 16.5779C4.65472 16.5779 4.78639 16.4371 4.78639 16.2651Z" fill="#961914"/>
<path d="M5.66468 17.4537C5.82629 17.4537 5.95729 17.3137 5.95729 17.1409C5.95729 16.9682 5.82629 16.8281 5.66468 16.8281C5.50308 16.8281 5.37207 16.9682 5.37207 17.1409C5.37207 17.3137 5.50308 17.4537 5.66468 17.4537Z" fill="#961914"/>
<path d="M6.1764 13.2467C6.33801 13.2467 6.46901 13.1066 6.46901 12.9339C6.46901 12.7611 6.33801 12.6211 6.1764 12.6211C6.0148 12.6211 5.88379 12.7611 5.88379 12.9339C5.88379 13.1066 6.0148 13.2467 6.1764 13.2467Z" fill="#961914"/>
<path d="M14.3555 5.11418C14.3555 5.28622 14.4871 5.42698 14.6481 5.42698C14.809 5.42698 14.9407 5.28622 14.9407 5.11418C14.9407 4.94215 14.809 4.80139 14.6481 4.80139C14.4871 4.80139 14.3555 4.94215 14.3555 5.11418Z" fill="#961914"/>
<path d="M15.818 4.55112C15.9796 4.55112 16.1106 4.41108 16.1106 4.23833C16.1106 4.06558 15.9796 3.92554 15.818 3.92554C15.6564 3.92554 15.5254 4.06558 15.5254 4.23833C15.5254 4.41108 15.6564 4.55112 15.818 4.55112Z" fill="#961914"/>
<path d="M16.3453 8.75815C16.507 8.75815 16.638 8.61811 16.638 8.44536C16.638 8.27261 16.507 8.13257 16.3453 8.13257C16.1837 8.13257 16.0527 8.27261 16.0527 8.44536C16.0527 8.61811 16.1837 8.75815 16.3453 8.75815Z" fill="#961914"/>
</g>
<defs>
<clipPath id="clip0_6231_2730">
<rect width="20" height="21.3793" fill="white" transform="translate(0.5)"/>
</clipPath>
</defs>
</svg>
