<svg width="21" height="20" viewBox="0 0 21 20" fill="none" xmlns="http://www.w3.org/2000/svg">
<path d="M20.0887 5.9049C20.3582 5.53584 20.5 5.11211 20.5 4.66104C20.5 3.45819 19.4929 2.48771 18.2447 2.48771C17.7766 2.48771 17.3369 2.6244 16.9539 2.8841C16.5709 2.6244 16.1312 2.48771 15.6631 2.48771C15.195 2.48771 14.7553 2.6244 14.3723 2.8841C14.0035 2.63807 13.5496 2.48771 13.0816 2.48771C12.6135 2.48771 12.1738 2.6244 11.7908 2.8841C11.4078 2.6244 10.9539 2.48771 10.5 2.48771C10.0177 2.48771 9.57801 2.63807 9.20922 2.8841C8.82624 2.6244 8.38652 2.48771 7.91844 2.48771C7.45035 2.48771 7.01064 2.6244 6.62766 2.8841V1.06616L4.78369 0H4.0461V2.8841C3.45035 3.29417 3.08156 3.95027 3.08156 4.66104C3.08156 5.86389 4.08865 6.83437 5.33688 6.83437C5.80496 6.83437 6.24468 6.69768 6.62766 6.43798C7.01064 6.69768 7.45035 6.83437 7.91844 6.83437C8.38652 6.83437 8.84042 6.69768 9.20922 6.43798C9.57801 6.69768 10.0319 6.83437 10.5 6.83437C10.9681 6.83437 11.4078 6.69768 11.7908 6.43798C12.1596 6.69768 12.6135 6.83437 13.0816 6.83437C13.5496 6.83437 13.9894 6.69768 14.3723 6.43798C14.7411 6.69768 15.1809 6.83437 15.6489 6.83437C15.7624 6.83437 15.8901 6.8207 16.0035 6.80703C15.9894 6.91638 15.9752 7.02573 15.9752 7.14875C15.9752 7.27177 15.9894 7.38112 16.0035 7.49047C15.4362 7.40846 14.8404 7.53148 14.3582 7.85953C14.0035 7.59982 13.5496 7.46313 13.0816 7.46313C12.6135 7.46313 12.1738 7.59982 11.7908 7.85953C11.4078 7.59982 10.9539 7.46313 10.5 7.46313C10.0319 7.46313 9.5922 7.59982 9.20922 7.85953C8.84042 7.59982 8.40071 7.46313 7.91844 7.46313C7.45035 7.46313 6.99645 7.59982 6.62766 7.85953C6.24468 7.59982 5.80496 7.46313 5.33688 7.46313C4.86879 7.46313 4.42908 7.59982 4.0461 7.85953C3.66312 7.59982 3.2234 7.46313 2.75532 7.46313C1.50709 7.46313 0.5 8.43361 0.5 9.63646C0.5 10.1012 0.641844 10.5249 0.911347 10.8803C0.641844 11.2357 0.5 11.6731 0.5 12.1242C0.5 12.5752 0.641844 12.999 0.911347 13.368C0.656028 13.7097 0.5 14.1472 0.5 14.5982C0.5 15.8011 1.50709 16.7715 2.75532 16.7715C3.2234 16.7715 3.6773 16.6212 4.0461 16.3752C4.42908 16.6349 4.86879 16.7715 5.33688 16.7715C5.80496 16.7715 6.24468 16.6349 6.62766 16.3752C7.01064 16.6349 7.45035 16.7715 7.91844 16.7715C8.38652 16.7715 8.84042 16.6212 9.20922 16.3752C9.5922 16.6349 10.0319 16.7715 10.5 16.7715C10.9681 16.7715 11.4078 16.6349 11.7908 16.3752C12.1596 16.6212 12.6135 16.7715 13.0816 16.7715C13.5496 16.7715 13.9894 16.6349 14.3723 16.3752V18.1931L16.2163 19.2593H16.9539V16.3752C17.5496 15.9651 17.9184 15.309 17.9184 14.5982C17.9184 13.3954 16.9113 12.4249 15.6631 12.4249C15.195 12.4249 14.7553 12.5616 14.3723 12.8213C13.9894 12.5616 13.5355 12.4249 13.0816 12.4249C12.6135 12.4249 12.1738 12.5616 11.7908 12.8213C11.422 12.5752 10.9823 12.4249 10.5 12.4249C10.0319 12.4249 9.5922 12.5616 9.20922 12.8213C8.82624 12.5616 8.38652 12.4249 7.91844 12.4249C7.45035 12.4249 7.01064 12.5616 6.62766 12.8213C6.24468 12.5616 5.80496 12.4249 5.33688 12.4249C5.2234 12.4249 5.09574 12.4386 4.98227 12.4522C4.99645 12.3429 5.01064 12.2335 5.01064 12.1105C5.01064 12.0012 4.99645 11.8781 4.98227 11.7688C5.09574 11.7825 5.20922 11.7961 5.33688 11.7961C5.81915 11.7961 6.25887 11.6458 6.62766 11.3997C6.99645 11.6731 7.45035 11.8098 7.91844 11.8098C8.38652 11.8098 8.82624 11.6731 9.20922 11.4134C9.57801 11.6594 10.0319 11.8098 10.5 11.8098C10.9681 11.8098 11.4078 11.6731 11.7908 11.4134C12.1738 11.6731 12.6135 11.8098 13.0816 11.8098C13.5496 11.8098 13.9894 11.6731 14.3723 11.4134C14.7411 11.6594 15.195 11.8098 15.6631 11.8098C16.1454 11.8098 16.5851 11.6594 16.9539 11.4134C17.3369 11.6731 17.7766 11.8098 18.2447 11.8098C19.4929 11.8098 20.5 10.8393 20.5 9.63646C20.5 9.1854 20.3582 8.76166 20.0887 8.39261C20.3582 8.02355 20.5 7.59982 20.5 7.14875C20.4858 6.68402 20.344 6.26028 20.0887 5.9049ZM19.4362 8.59764C19.7057 8.88468 19.8475 9.25374 19.8475 9.63646C19.8475 10.4976 19.1241 11.1947 18.2305 11.1947C17.9468 11.1947 17.6631 11.1127 17.422 10.9897C17.7199 10.6206 17.9043 10.1559 17.9043 9.65013H17.266C17.266 10.5113 16.5426 11.2084 15.6489 11.2084C14.9681 11.2084 14.3582 10.7983 14.1312 10.1695L13.5213 10.3609C13.6064 10.5933 13.7199 10.7983 13.8759 10.976C13.2943 11.2904 12.5142 11.2357 12.0035 10.7846L11.7908 10.6069L11.5638 10.7846C11.2801 11.0443 10.8972 11.181 10.5 11.181C9.81915 11.181 9.2234 10.771 8.98227 10.1559L8.37234 10.3746C8.45745 10.5933 8.57092 10.7983 8.72695 10.976C8.2305 11.2357 7.60638 11.2357 7.12411 10.976C7.4078 10.6069 7.5922 10.1422 7.5922 9.63646H6.9539C6.9539 10.4976 6.2305 11.1947 5.33688 11.1947C5.12411 11.1947 4.92553 11.1537 4.74113 11.0854C4.55674 10.7573 4.28723 10.4839 3.96099 10.2789L3.60638 10.7983C4.07447 11.0854 4.35816 11.5774 4.35816 12.1105C4.35816 12.3155 4.3156 12.5069 4.24468 12.6846C3.54965 13.0536 3.06738 13.7644 3.06738 14.5845H3.70567C3.70567 13.7234 4.42908 13.0263 5.32269 13.0263C5.71986 13.0263 6.10284 13.163 6.40071 13.4227L6.61347 13.6141L6.82624 13.4227C7.35106 13.0126 8.13121 12.9443 8.72695 13.2587C8.41489 13.6414 8.24468 14.1061 8.24468 14.5982H8.88298C8.88298 14.1608 9.08156 13.7371 9.42199 13.4364C9.71986 13.1903 10.1028 13.0536 10.5 13.0536C11.3936 13.0536 12.117 13.7508 12.117 14.6119H12.7553C12.7553 14.1061 12.5709 13.6414 12.273 13.2724C12.8546 12.958 13.6348 13.0126 14.1596 13.45L14.3723 13.6414L14.5851 13.45C14.883 13.1903 15.266 13.0536 15.6631 13.0536C16.5567 13.0536 17.2801 13.7508 17.2801 14.6119C17.2801 15.1586 16.9681 15.678 16.4716 15.9514L16.3156 16.0471V18.6032L15.0248 17.8514V16.0471L14.8688 15.9514C14.7695 15.8967 14.6844 15.8284 14.5993 15.7601L14.3865 15.5687L14.1738 15.7601C13.8759 16.0198 13.4929 16.1565 13.0957 16.1565C12.4291 16.1565 11.8191 15.7601 11.5922 15.1586L10.9823 15.3773C11.0674 15.5824 11.1809 15.7737 11.3227 15.9514C10.8262 16.2111 10.2021 16.2111 9.71986 15.9514C9.87589 15.7601 9.98936 15.555 10.0745 15.3227L9.43617 15.1176C9.20922 15.7464 8.59929 16.1565 7.91844 16.1565C7.52128 16.1565 7.1383 16.0198 6.84043 15.7601L6.62766 15.5687L6.41489 15.7601C5.90425 16.1975 5.12411 16.2658 4.54255 15.9378C4.69858 15.7464 4.81206 15.5414 4.89716 15.309L4.28723 15.104C4.06028 15.7327 3.45035 16.1428 2.7695 16.1428C1.87589 16.1428 1.15248 15.4457 1.15248 14.5845C1.15248 13.7234 1.87589 13.0263 2.7695 13.0263V12.4249C2.24468 12.4249 1.76241 12.6026 1.37943 12.8896C1.23759 12.6573 1.16667 12.3839 1.16667 12.1105C1.16667 11.8371 1.23759 11.5638 1.37943 11.3314C1.6773 11.5501 2.01773 11.7004 2.41489 11.7688L2.51418 11.1537C1.71986 11.0443 1.1383 10.4019 1.1383 9.63646C1.1383 8.77533 1.8617 8.07823 2.75532 8.07823C3.15248 8.07823 3.53546 8.21491 3.83333 8.47462L4.0461 8.66598L4.25887 8.47462C4.7695 8.03722 5.54964 7.96888 6.13121 8.29693C5.98936 8.47462 5.87589 8.67965 5.79078 8.91202L6.40071 9.11705C6.62766 8.50196 7.23759 8.07823 7.91844 8.07823C8.81206 8.07823 9.53546 8.77533 9.53546 9.63646H10.1738C10.1738 9.13072 9.98936 8.66598 9.69149 8.29693C10.273 7.98255 11.0532 8.03722 11.5638 8.47462L11.7766 8.66598L12.0035 8.47462C12.3014 8.21491 12.6844 8.07823 13.0816 8.07823C13.961 8.07823 14.6844 8.77533 14.6844 9.63646H15.3227C15.3227 9.13072 15.1383 8.66598 14.8404 8.29693C15.266 8.06456 15.7908 8.02355 16.2589 8.20125C16.344 8.33793 16.4433 8.47462 16.5567 8.59764L17.039 8.18758C16.7695 7.90053 16.6277 7.53148 16.6277 7.14875C16.6277 6.94372 16.6702 6.75236 16.7411 6.561C16.883 6.47898 17.0248 6.3833 17.1525 6.27395L16.7269 5.80922C16.4291 6.06892 16.0461 6.20561 15.6489 6.20561C14.9681 6.20561 14.3582 5.79555 14.1312 5.16678L13.5213 5.38549C13.6064 5.61785 13.7199 5.82288 13.8759 6.00058C13.2943 6.31496 12.5142 6.26028 12.0035 5.82289L11.7908 5.63152L11.5638 5.82289C11.0532 6.26028 10.273 6.31496 9.69149 6.00058C9.83333 5.82288 9.96099 5.61785 10.0461 5.38549L9.43617 5.18045C9.20922 5.79555 8.59929 6.21928 7.91844 6.21928C7.52128 6.21928 7.1383 6.08259 6.84043 5.82289L6.62766 5.63152L6.41489 5.82289C6.11702 6.06892 5.73404 6.21928 5.33688 6.21928C4.44326 6.21928 3.71986 5.52217 3.71986 4.66104C3.71986 4.11429 4.03191 3.59488 4.52837 3.3215L4.6844 3.22582V0.669768L5.97518 1.42155V3.22582L6.13121 3.3215C6.2305 3.37618 6.3156 3.44452 6.40071 3.51287L6.62766 3.69056L6.84043 3.4992C7.35106 3.0618 8.13121 3.00712 8.72695 3.3215C8.41489 3.69056 8.24468 4.1553 8.24468 4.66104H8.88298C8.88298 3.79991 9.60638 3.1028 10.5 3.1028C10.8972 3.1028 11.2801 3.23949 11.578 3.4992L11.7908 3.69056L12.0035 3.4992C12.3014 3.23949 12.6844 3.1028 13.0816 3.1028C13.961 3.1028 14.6844 3.79991 14.6844 4.66104H15.3227C15.3227 4.1553 15.1383 3.69056 14.8404 3.3215C15.422 3.00712 16.2021 3.0618 16.7269 3.4992L16.9397 3.69056L17.1525 3.4992C17.4504 3.23949 17.8333 3.1028 18.2305 3.1028C19.1241 3.1028 19.8475 3.79991 19.8475 4.66104C19.8475 4.93442 19.7624 5.20779 19.6348 5.44016C19.2518 5.15312 18.7695 4.97542 18.2447 4.97542V5.59052C19.1383 5.59052 19.8617 6.28762 19.8617 7.14875C19.8617 7.53148 19.7199 7.90053 19.4504 8.18758L19.2518 8.39261L19.4362 8.59764Z" fill="#961914"/>
</svg>
